<mxfile host="app.diagrams.net" agent="Mozilla/5.0 (Windows NT 10.0; Win64; x64) AppleWebKit/537.36 (KHTML, like Gecko) Chrome/130.0.0.0 Safari/537.36" version="24.8.6" pages="2">
  <diagram name="페이지-1" id="Nfai-yFpdl8lFwudirBK">
    <mxGraphModel dx="1762" dy="821" grid="1" gridSize="10" guides="1" tooltips="1" connect="1" arrows="1" fold="1" page="1" pageScale="1" pageWidth="827" pageHeight="1169" math="0" shadow="0">
      <root>
        <mxCell id="0" />
        <mxCell id="1" parent="0" />
        <mxCell id="EB5yxiJkmNpRtnvnN5DQ-1" value="회원" style="shape=umlActor;verticalLabelPosition=bottom;verticalAlign=top;html=1;outlineConnect=0;" vertex="1" parent="1">
          <mxGeometry x="200" y="160" width="40" height="80" as="geometry" />
        </mxCell>
        <mxCell id="EB5yxiJkmNpRtnvnN5DQ-2" value="" style="endArrow=none;dashed=1;html=1;dashPattern=1 3;strokeWidth=2;rounded=0;" edge="1" parent="1" target="EB5yxiJkmNpRtnvnN5DQ-1">
          <mxGeometry width="50" height="50" relative="1" as="geometry">
            <mxPoint x="220" y="1126" as="sourcePoint" />
            <mxPoint x="370" y="380" as="targetPoint" />
          </mxGeometry>
        </mxCell>
        <mxCell id="EB5yxiJkmNpRtnvnN5DQ-3" value="" style="endArrow=none;dashed=1;html=1;dashPattern=1 3;strokeWidth=2;rounded=0;" edge="1" parent="1" source="EB5yxiJkmNpRtnvnN5DQ-8">
          <mxGeometry width="50" height="50" relative="1" as="geometry">
            <mxPoint x="580" y="1126" as="sourcePoint" />
            <mxPoint x="580" y="240" as="targetPoint" />
          </mxGeometry>
        </mxCell>
        <mxCell id="EB5yxiJkmNpRtnvnN5DQ-4" value="" style="endArrow=classic;html=1;rounded=0;" edge="1" parent="1">
          <mxGeometry width="50" height="50" relative="1" as="geometry">
            <mxPoint x="220" y="280" as="sourcePoint" />
            <mxPoint x="569" y="280" as="targetPoint" />
          </mxGeometry>
        </mxCell>
        <mxCell id="EB5yxiJkmNpRtnvnN5DQ-5" value="&lt;div&gt;작성글 조회(String userid)&lt;/div&gt;" style="text;html=1;align=center;verticalAlign=middle;resizable=0;points=[];autosize=1;strokeColor=none;fillColor=none;" vertex="1" parent="1">
          <mxGeometry x="320" y="250" width="160" height="30" as="geometry" />
        </mxCell>
        <mxCell id="EB5yxiJkmNpRtnvnN5DQ-6" value="PlannerService" style="rounded=0;whiteSpace=wrap;html=1;" vertex="1" parent="1">
          <mxGeometry x="520" y="180" width="120" height="60" as="geometry" />
        </mxCell>
        <mxCell id="EB5yxiJkmNpRtnvnN5DQ-7" value="plannerList(userid)" style="text;html=1;align=center;verticalAlign=middle;resizable=0;points=[];autosize=1;strokeColor=none;fillColor=none;" vertex="1" parent="1">
          <mxGeometry x="585" y="245" width="120" height="30" as="geometry" />
        </mxCell>
        <mxCell id="EB5yxiJkmNpRtnvnN5DQ-9" value="" style="endArrow=none;dashed=1;html=1;dashPattern=1 3;strokeWidth=2;rounded=0;" edge="1" parent="1" target="EB5yxiJkmNpRtnvnN5DQ-8">
          <mxGeometry width="50" height="50" relative="1" as="geometry">
            <mxPoint x="580" y="1126" as="sourcePoint" />
            <mxPoint x="580" y="240" as="targetPoint" />
          </mxGeometry>
        </mxCell>
        <mxCell id="EB5yxiJkmNpRtnvnN5DQ-8" value="" style="rounded=0;whiteSpace=wrap;html=1;" vertex="1" parent="1">
          <mxGeometry x="570" y="270" width="20" height="90" as="geometry" />
        </mxCell>
        <mxCell id="EB5yxiJkmNpRtnvnN5DQ-10" value="" style="endArrow=none;dashed=1;html=1;dashPattern=1 3;strokeWidth=2;rounded=0;" edge="1" parent="1" source="EB5yxiJkmNpRtnvnN5DQ-13">
          <mxGeometry width="50" height="50" relative="1" as="geometry">
            <mxPoint x="860" y="1126" as="sourcePoint" />
            <mxPoint x="860" y="240" as="targetPoint" />
          </mxGeometry>
        </mxCell>
        <mxCell id="EB5yxiJkmNpRtnvnN5DQ-11" value="PlannerDaoImpl" style="rounded=0;whiteSpace=wrap;html=1;" vertex="1" parent="1">
          <mxGeometry x="800" y="180" width="120" height="60" as="geometry" />
        </mxCell>
        <mxCell id="EB5yxiJkmNpRtnvnN5DQ-12" value="" style="endArrow=none;dashed=1;html=1;dashPattern=1 3;strokeWidth=2;rounded=0;" edge="1" parent="1" target="EB5yxiJkmNpRtnvnN5DQ-13">
          <mxGeometry width="50" height="50" relative="1" as="geometry">
            <mxPoint x="860" y="1126" as="sourcePoint" />
            <mxPoint x="860" y="240" as="targetPoint" />
          </mxGeometry>
        </mxCell>
        <mxCell id="EB5yxiJkmNpRtnvnN5DQ-13" value="" style="rounded=0;whiteSpace=wrap;html=1;" vertex="1" parent="1">
          <mxGeometry x="850" y="290" width="20" height="50" as="geometry" />
        </mxCell>
        <mxCell id="EB5yxiJkmNpRtnvnN5DQ-14" value="" style="endArrow=none;dashed=1;html=1;dashPattern=1 3;strokeWidth=2;rounded=0;" edge="1" parent="1" source="EB5yxiJkmNpRtnvnN5DQ-17">
          <mxGeometry width="50" height="50" relative="1" as="geometry">
            <mxPoint x="1140" y="1126" as="sourcePoint" />
            <mxPoint x="1140" y="240" as="targetPoint" />
          </mxGeometry>
        </mxCell>
        <mxCell id="EB5yxiJkmNpRtnvnN5DQ-15" value="UserService" style="rounded=0;whiteSpace=wrap;html=1;" vertex="1" parent="1">
          <mxGeometry x="1080" y="180" width="120" height="60" as="geometry" />
        </mxCell>
        <mxCell id="EB5yxiJkmNpRtnvnN5DQ-16" value="" style="endArrow=none;dashed=1;html=1;dashPattern=1 3;strokeWidth=2;rounded=0;" edge="1" parent="1" target="EB5yxiJkmNpRtnvnN5DQ-17">
          <mxGeometry width="50" height="50" relative="1" as="geometry">
            <mxPoint x="1140" y="1126" as="sourcePoint" />
            <mxPoint x="1140" y="240" as="targetPoint" />
          </mxGeometry>
        </mxCell>
        <mxCell id="EB5yxiJkmNpRtnvnN5DQ-17" value="" style="rounded=0;whiteSpace=wrap;html=1;" vertex="1" parent="1">
          <mxGeometry x="1130" y="340" width="20" height="210" as="geometry" />
        </mxCell>
        <mxCell id="EB5yxiJkmNpRtnvnN5DQ-18" value="" style="endArrow=classic;html=1;rounded=0;" edge="1" parent="1">
          <mxGeometry width="50" height="50" relative="1" as="geometry">
            <mxPoint x="590" y="304.54" as="sourcePoint" />
            <mxPoint x="850" y="305" as="targetPoint" />
          </mxGeometry>
        </mxCell>
        <mxCell id="EB5yxiJkmNpRtnvnN5DQ-19" value="해당 userid를 가진 PlannerDto를 요청" style="text;html=1;align=center;verticalAlign=middle;resizable=0;points=[];autosize=1;strokeColor=none;fillColor=none;" vertex="1" parent="1">
          <mxGeometry x="610" y="275" width="230" height="30" as="geometry" />
        </mxCell>
        <mxCell id="EB5yxiJkmNpRtnvnN5DQ-20" value="작성글 조회" style="shape=umlFrame;whiteSpace=wrap;html=1;pointerEvents=0;width=70;height=30;" vertex="1" parent="1">
          <mxGeometry x="240" y="290" width="300" height="50" as="geometry" />
        </mxCell>
        <mxCell id="EB5yxiJkmNpRtnvnN5DQ-21" value="정보 수정 요청(UserDto userDto)" style="text;html=1;align=center;verticalAlign=middle;resizable=0;points=[];autosize=1;strokeColor=none;fillColor=none;" vertex="1" parent="1">
          <mxGeometry x="290" y="370" width="200" height="30" as="geometry" />
        </mxCell>
        <mxCell id="EB5yxiJkmNpRtnvnN5DQ-25" value="정보수정 요청" style="shape=umlFrame;whiteSpace=wrap;html=1;pointerEvents=0;width=80;height=30;" vertex="1" parent="1">
          <mxGeometry x="240" y="410" width="300" height="70" as="geometry" />
        </mxCell>
        <mxCell id="EB5yxiJkmNpRtnvnN5DQ-26" value="" style="endArrow=classic;html=1;rounded=0;entryX=0;entryY=0.108;entryDx=0;entryDy=0;entryPerimeter=0;" edge="1" parent="1">
          <mxGeometry width="50" height="50" relative="1" as="geometry">
            <mxPoint x="221.5" y="400.04" as="sourcePoint" />
            <mxPoint x="1130" y="400.00000000000006" as="targetPoint" />
          </mxGeometry>
        </mxCell>
        <mxCell id="EB5yxiJkmNpRtnvnN5DQ-27" value="userUpdate(userDto)" style="text;html=1;align=center;verticalAlign=middle;resizable=0;points=[];autosize=1;strokeColor=none;fillColor=none;" vertex="1" parent="1">
          <mxGeometry x="1145" y="340" width="140" height="30" as="geometry" />
        </mxCell>
        <mxCell id="EB5yxiJkmNpRtnvnN5DQ-29" value="" style="endArrow=none;dashed=1;html=1;dashPattern=1 3;strokeWidth=2;rounded=0;" edge="1" parent="1" source="EB5yxiJkmNpRtnvnN5DQ-32">
          <mxGeometry width="50" height="50" relative="1" as="geometry">
            <mxPoint x="1380" y="1126" as="sourcePoint" />
            <mxPoint x="1380" y="240" as="targetPoint" />
          </mxGeometry>
        </mxCell>
        <mxCell id="EB5yxiJkmNpRtnvnN5DQ-30" value="UserDaoImpl" style="rounded=0;whiteSpace=wrap;html=1;" vertex="1" parent="1">
          <mxGeometry x="1320" y="180" width="120" height="60" as="geometry" />
        </mxCell>
        <mxCell id="EB5yxiJkmNpRtnvnN5DQ-31" value="" style="endArrow=none;dashed=1;html=1;dashPattern=1 3;strokeWidth=2;rounded=0;" edge="1" parent="1" target="EB5yxiJkmNpRtnvnN5DQ-32">
          <mxGeometry width="50" height="50" relative="1" as="geometry">
            <mxPoint x="1380" y="1126" as="sourcePoint" />
            <mxPoint x="1380" y="240" as="targetPoint" />
          </mxGeometry>
        </mxCell>
        <mxCell id="EB5yxiJkmNpRtnvnN5DQ-32" value="" style="rounded=0;whiteSpace=wrap;html=1;" vertex="1" parent="1">
          <mxGeometry x="1370" y="430" width="20" height="50" as="geometry" />
        </mxCell>
        <mxCell id="EB5yxiJkmNpRtnvnN5DQ-35" value="" style="endArrow=classic;html=1;rounded=0;" edge="1" parent="1">
          <mxGeometry width="50" height="50" relative="1" as="geometry">
            <mxPoint x="1150" y="440" as="sourcePoint" />
            <mxPoint x="1370" y="440.5" as="targetPoint" />
          </mxGeometry>
        </mxCell>
        <mxCell id="EB5yxiJkmNpRtnvnN5DQ-37" value="userDto를 통해 정보 수정 요청" style="text;html=1;align=center;verticalAlign=middle;resizable=0;points=[];autosize=1;strokeColor=none;fillColor=none;" vertex="1" parent="1">
          <mxGeometry x="1160" y="410" width="190" height="30" as="geometry" />
        </mxCell>
        <mxCell id="EB5yxiJkmNpRtnvnN5DQ-38" value="userid로 검색한 PlannerDto를 전달" style="endArrow=none;endSize=12;dashed=1;html=1;rounded=0;endFill=0;startArrow=block;startFill=1;exitX=0.95;exitY=0.678;exitDx=0;exitDy=0;exitPerimeter=0;" edge="1" parent="1" source="EB5yxiJkmNpRtnvnN5DQ-8">
          <mxGeometry width="160" relative="1" as="geometry">
            <mxPoint x="690" y="330" as="sourcePoint" />
            <mxPoint x="850" y="330" as="targetPoint" />
          </mxGeometry>
        </mxCell>
        <mxCell id="EB5yxiJkmNpRtnvnN5DQ-39" value="userid로 검색한 PlannerDto를 전달" style="endArrow=none;endSize=12;dashed=1;html=1;rounded=0;endFill=0;startArrow=block;startFill=1;" edge="1" parent="1">
          <mxGeometry width="160" relative="1" as="geometry">
            <mxPoint x="220" y="350" as="sourcePoint" />
            <mxPoint x="570" y="350" as="targetPoint" />
          </mxGeometry>
        </mxCell>
        <mxCell id="EB5yxiJkmNpRtnvnN5DQ-42" value="userDto로 정보 수정" style="endArrow=none;endSize=12;dashed=1;html=1;rounded=0;endFill=0;startArrow=block;startFill=1;" edge="1" parent="1">
          <mxGeometry width="160" relative="1" as="geometry">
            <mxPoint x="1150" y="470" as="sourcePoint" />
            <mxPoint x="1370" y="470" as="targetPoint" />
          </mxGeometry>
        </mxCell>
        <mxCell id="EB5yxiJkmNpRtnvnN5DQ-43" value="정보 수정 완료" style="endArrow=none;endSize=12;dashed=1;html=1;rounded=0;endFill=0;startArrow=block;startFill=1;" edge="1" parent="1">
          <mxGeometry width="160" relative="1" as="geometry">
            <mxPoint x="220" y="504.5" as="sourcePoint" />
            <mxPoint x="1130" y="504.5" as="targetPoint" />
          </mxGeometry>
        </mxCell>
      </root>
    </mxGraphModel>
  </diagram>
  <diagram id="0m79JZQ0VNBe5McSHrBL" name="페이지-2">
    <mxGraphModel dx="712" dy="779" grid="1" gridSize="10" guides="1" tooltips="1" connect="1" arrows="1" fold="1" page="1" pageScale="1" pageWidth="827" pageHeight="1169" math="0" shadow="0">
      <root>
        <mxCell id="0" />
        <mxCell id="1" parent="0" />
        <mxCell id="MTqPJXXKgOuwlo47O0u3-2" value="요청 종류&lt;span style=&quot;white-space: pre;&quot;&gt;&#x9;&lt;/span&gt;&lt;span style=&quot;white-space: pre;&quot;&gt;&#x9;&lt;/span&gt;&lt;span style=&quot;white-space: pre;&quot;&gt;&#x9;&lt;/span&gt;요청URI&lt;span style=&quot;white-space: pre;&quot;&gt;&#x9;&lt;/span&gt;&lt;span style=&quot;white-space: pre;&quot;&gt;&#x9;&lt;/span&gt;&lt;span style=&quot;white-space: pre;&quot;&gt;&#x9;&lt;/span&gt;요청파라미터&lt;span style=&quot;white-space: pre;&quot;&gt;&#x9;&lt;/span&gt;&lt;span style=&quot;white-space: pre;&quot;&gt;&#x9;&lt;/span&gt;&lt;span style=&quot;white-space: pre;&quot;&gt;&#x9;&lt;/span&gt;응답형태&lt;span style=&quot;white-space: pre;&quot;&gt;&#x9;&lt;/span&gt;&lt;span style=&quot;white-space: pre;&quot;&gt;&#x9;&lt;/span&gt;&lt;span style=&quot;white-space: pre;&quot;&gt;&#x9;&lt;/span&gt;Description&lt;span style=&quot;white-space: pre;&quot;&gt;&#x9;&lt;/span&gt;&lt;span style=&quot;white-space: pre;&quot;&gt;&#x9;&lt;/span&gt;&lt;span style=&quot;white-space: pre;&quot;&gt;&#x9;&lt;/span&gt;&lt;span style=&quot;white-space: pre;&quot;&gt;&#x9;&lt;/span&gt;관련서비스&lt;div&gt;로그인&lt;span style=&quot;white-space: pre;&quot;&gt;&#x9;&lt;/span&gt;&lt;span style=&quot;white-space: pre;&quot;&gt;&#x9;&lt;/span&gt;&lt;span style=&quot;white-space: pre;&quot;&gt;&#x9;&lt;/span&gt;/user/join&lt;span style=&quot;white-space: pre;&quot;&gt;&#x9;&lt;/span&gt;&lt;span style=&quot;white-space: pre;&quot;&gt;&#x9;&lt;/span&gt;&lt;span style=&quot;white-space: pre;&quot;&gt;&#x9;&lt;/span&gt;UserDto&lt;span style=&quot;white-space: pre;&quot;&gt;&#x9;&lt;/span&gt;&lt;span style=&quot;white-space: pre;&quot;&gt;&#x9;&lt;/span&gt;&lt;span style=&quot;white-space: pre;&quot;&gt;&#x9;&lt;/span&gt;없음&lt;span style=&quot;white-space: pre;&quot;&gt;&#x9;&lt;/span&gt;&lt;span style=&quot;white-space: pre;&quot;&gt;&#x9;&lt;/span&gt;&lt;span style=&quot;white-space: pre;&quot;&gt;&#x9;&lt;/span&gt;&lt;span style=&quot;white-space: pre;&quot;&gt;&lt;/span&gt;&lt;/div&gt;" style="rounded=0;whiteSpace=wrap;html=1;" vertex="1" parent="1">
          <mxGeometry x="80" y="160" width="720" height="280" as="geometry" />
        </mxCell>
      </root>
    </mxGraphModel>
  </diagram>
</mxfile>
